<svg xmlns="http://www.w3.org/2000/svg" xmlns:xlink="http://www.w3.org/1999/xlink" viewBox="0,0,256,256" width="64px" height="64px" fill-rule="nonzero"><g transform="translate(25.6,25.6) scale(0.8,0.8)"><g fill="#737373" fill-rule="nonzero" stroke="none" stroke-width="1" stroke-linecap="butt" stroke-linejoin="miter" stroke-miterlimit="10" stroke-dasharray="" stroke-dashoffset="0" font-family="none" font-weight="none" font-size="none" text-anchor="none" style="mix-blend-mode: normal"><g transform="scale(4,4)"><path d="M11,6v52h42v-33.8457c0,-2.037 -0.7193,-4.00936 -2.0293,-5.56836l-8.86133,-10.54297c-1.088,-1.295 -2.69277,-2.04297 -4.38477,-2.04297zM15,10h21.69531c3.29,0 4.30469,1.36508 4.30469,2.58008c0,1.785 -2,4.41992 -2,4.41992c9.761,4.62 9.81641,4.61855 9.81641,8.18555c0,5 0.18359,28.81445 0.18359,28.81445h-34zM22,26v4h20v-4zM22,34v4h20v-4zM22,42v4h13v-4z"></path></g></g></g></svg>